# xmcd
# 
# Track frame offsets:
#     150
#     18814
#     38462
#     56602
#     79865
#     97524
#     114196
#     142397
#     171188
#     192170
#     217504
#     242601
# 
# Disc length: 3723
# 
# Revision: 1
# Processed by: cddbd v1.5.2PL0 Copyright (c) Steve Scherf et al.
# Submitted via: fre:ac v1.0.17
# 
DISCID=880e890c
DTITLE=Mountain Men - Hope
DYEAR=2012
DGENRE=Blues
TTITLE0=Egotistical
TTITLE1=Tick tock
TTITLE2=Imidiouane
TTITLE3=Give it back tome
TTITLE4=Before I sleep
TTITLE5=Smells like teen spirti
TTITLE6=Kiss me
TTITLE7=I believe in me
TTITLE8=I hope
TTITLE9=Nothing Zero None
TTITLE10=Travailler c'est trop dur
TTITLE11=Move up to the door
EXTD=
EXTT0=
EXTT1=
EXTT2=
EXTT3=
EXTT4=
EXTT5=
EXTT6=
EXTT7=
EXTT8=
EXTT9=
EXTT10=
EXTT11=
PLAYORDER=
